mtllib EffFoxReflector.mtl

v -6.928203 4.000001 0.000001
v 0.000000 7.000000 0.000002
v 0.000000 8.000000 0.000002
v -6.062177 3.500001 0.000001
v -6.928204 -4.000000 -0.000001
v -6.062178 -3.500000 -0.000001
v 0.000000 -8.000000 -0.000002
v 0.000000 -7.000000 -0.000002
v 6.928203 -4.000000 -0.000001
v 6.062178 -3.500000 -0.000001
v 6.928204 4.000000 0.000001
v 6.062178 3.500000 0.000001
v 0.000000 5.000000 0.000001
v -4.330127 2.500000 0.000001
v -4.330127 -2.500000 -0.000001
v 0.000000 -5.000000 -0.000001
v 4.330127 -2.500000 -0.000001
v 4.330127 2.500000 0.000001
v 0.000000 4.000000 0.000001
v -3.464101 2.000000 0.000001
v -3.464102 -2.000000 -0.000001
v 0.000000 -4.000000 -0.000001
v 3.464102 -2.000000 -0.000001
v 3.464102 2.000000 0.000001

vt 0.000000 1.000000
vt 0.000000 1.000000
vt 0.000000 1.000000
vt 0.000000 1.000000
vt 0.000000 1.000000
vt 0.000000 1.000000
vt 0.000000 1.000000
vt 0.000000 1.000000
vt 0.000000 1.000000
vt 0.000000 1.000000
vt 0.000000 1.000000
vt 0.000000 1.000000
vt 0.000000 1.000000
vt 0.000000 1.000000
vt 0.000000 1.000000
vt 0.000000 1.000000
vt 0.000000 1.000000
vt 0.000000 1.000000
vt 0.000000 1.000000
vt 0.000000 1.000000
vt 0.000000 1.000000
vt 0.000000 1.000000
vt 0.000000 1.000000
vt 0.000000 1.000000

vn 0.000000 -0.000000 1.000000
vn 0.000000 -0.000000 1.000000
vn 0.000000 -0.000000 1.000000
vn 0.000000 -0.000000 1.000000
vn 0.000000 -0.000000 1.000000
vn 0.000000 -0.000000 1.000000
vn 0.000000 -0.000000 1.000000
vn 0.000000 -0.000000 1.000000
vn 0.000000 -0.000000 1.000000
vn 0.000000 -0.000000 1.000000
vn 0.000000 -0.000000 1.000000
vn 0.000000 -0.000000 1.000000
vn 0.000000 -0.000000 1.000000
vn 0.000000 -0.000000 1.000000
vn 0.000000 -0.000000 1.000000
vn 0.000000 -0.000000 1.000000
vn 0.000000 -0.000000 1.000000
vn 0.000000 -0.000000 1.000000
vn 0.000000 -0.000000 1.000000
vn 0.000000 -0.000000 1.000000
vn 0.000000 -0.000000 1.000000
vn 0.000000 -0.000000 1.000000
vn 0.000000 -0.000000 1.000000
vn 0.000000 -0.000000 1.000000

g polygon0
s 1
usemtl mat1
f 1/1/1 2/2/2 3/3/3
f 1/1/1 4/4/4 2/2/2
f 5/5/5 4/4/4 1/1/1
f 5/5/5 6/6/6 4/4/4
f 7/7/7 6/6/6 5/5/5
f 7/7/7 8/8/8 6/6/6
f 9/9/9 8/8/8 7/7/7
f 9/9/9 10/10/10 8/8/8
f 11/11/11 10/10/10 9/9/9
f 11/11/11 12/12/12 10/10/10
f 3/3/3 12/12/12 11/11/11
f 3/3/3 2/2/2 12/12/12
f 4/4/4 13/13/13 2/2/2
f 4/4/4 14/14/14 13/13/13
f 6/6/6 14/14/14 4/4/4
f 6/6/6 15/15/15 14/14/14
f 8/8/8 15/15/15 6/6/6
f 8/8/8 16/16/16 15/15/15
f 10/10/10 16/16/16 8/8/8
f 10/10/10 17/17/17 16/16/16
f 12/12/12 17/17/17 10/10/10
f 12/12/12 18/18/18 17/17/17
f 2/2/2 18/18/18 12/12/12
f 2/2/2 13/13/13 18/18/18
f 14/14/14 19/19/19 13/13/13
f 14/14/14 20/20/20 19/19/19
f 15/15/15 20/20/20 14/14/14
f 15/15/15 21/21/21 20/20/20
f 16/16/16 21/21/21 15/15/15
f 16/16/16 22/22/22 21/21/21
f 17/17/17 22/22/22 16/16/16
f 17/17/17 23/23/23 22/22/22
f 18/18/18 23/23/23 17/17/17
f 18/18/18 24/24/24 23/23/23
f 13/13/13 24/24/24 18/18/18
f 13/13/13 19/19/19 24/24/24

v 3.464101 -2.000001 -0.000001
v 0.000000 -2.000000 -0.000001
v 0.000000 -4.000000 -0.000001
v 1.732051 -1.000000 -0.000000
v 3.464102 1.999999 0.000001
v 1.732051 1.000000 0.000000
v 0.000000 4.000000 0.000001
v 0.000000 2.000000 0.000001
v -3.464101 2.000000 0.000001
v -1.732051 1.000000 0.000000
v -3.464102 -2.000000 -0.000001
v -1.732051 -1.000000 -0.000000
v -8.660254 5.000001 0.000001
v 0.000000 8.000000 0.000002
v 0.000000 10.000000 0.000003
v -6.928203 4.000001 0.000001
v -8.660254 -4.999999 -0.000001
v -6.928204 -3.999999 -0.000001
v 0.000000 -10.000000 -0.000003
v 0.000000 -8.000000 -0.000002
v 8.660254 -5.000000 -0.000001
v 6.928203 -4.000000 -0.000001
v 8.660254 5.000000 0.000001
v 6.928204 4.000000 0.000001

vt 0.000000 1.000000
vt 0.000000 1.000000
vt 0.000000 1.000000
vt 0.000000 1.000000
vt 0.000000 1.000000
vt 0.000000 1.000000
vt 0.000000 1.000000
vt 0.000000 1.000000
vt 0.000000 1.000000
vt 0.000000 1.000000
vt 0.000000 1.000000
vt 0.000000 1.000000
vt 0.000000 1.000000
vt 0.000000 1.000000
vt 0.000000 1.000000
vt 0.000000 1.000000
vt 0.000000 1.000000
vt 0.000000 1.000000
vt 0.000000 1.000000
vt 0.000000 1.000000
vt 0.000000 1.000000
vt 0.000000 1.000000
vt 0.000000 1.000000
vt 0.000000 1.000000

vn 0.000000 -0.000000 1.000000
vn 0.000000 -0.000000 1.000000
vn 0.000000 -0.000000 1.000000
vn 0.000000 -0.000000 1.000000
vn 0.000000 -0.000000 1.000000
vn 0.000000 -0.000000 1.000000
vn 0.000000 -0.000000 1.000000
vn 0.000000 -0.000000 1.000000
vn 0.000000 -0.000000 1.000000
vn 0.000000 -0.000000 1.000000
vn 0.000000 -0.000000 1.000000
vn 0.000000 -0.000000 1.000000
vn 0.000000 -0.000000 1.000000
vn 0.000000 -0.000000 1.000000
vn 0.000000 -0.000000 1.000000
vn 0.000000 -0.000000 1.000000
vn 0.000000 -0.000000 1.000000
vn 0.000000 -0.000000 1.000000
vn 0.000000 -0.000000 1.000000
vn 0.000000 -0.000000 1.000000
vn 0.000000 -0.000000 1.000000
vn 0.000000 -0.000000 1.000000
vn 0.000000 -0.000000 1.000000
vn 0.000000 -0.000000 1.000000

g polygon1
s 1
usemtl mat2
f 25/25/25 26/26/26 27/27/27
f 25/25/25 28/28/28 26/26/26
f 29/29/29 28/28/28 25/25/25
f 29/29/29 30/30/30 28/28/28
f 31/31/31 30/30/30 29/29/29
f 31/31/31 32/32/32 30/30/30
f 33/33/33 32/32/32 31/31/31
f 33/33/33 34/34/34 32/32/32
f 35/35/35 34/34/34 33/33/33
f 35/35/35 36/36/36 34/34/34
f 27/27/27 36/36/36 35/35/35
f 27/27/27 26/26/26 36/36/36
f 37/37/37 38/38/38 39/39/39
f 37/37/37 40/40/40 38/38/38
f 41/41/41 40/40/40 37/37/37
f 41/41/41 42/42/42 40/40/40
f 43/43/43 42/42/42 41/41/41
f 43/43/43 44/44/44 42/42/42
f 45/45/45 44/44/44 43/43/43
f 45/45/45 46/46/46 44/44/44
f 47/47/47 46/46/46 45/45/45
f 47/47/47 48/48/48 46/46/46
f 39/39/39 48/48/48 47/47/47
f 39/39/39 38/38/38 48/48/48

