mtllib EffFoxReflectorStart.mtl

v -10.870387 6.276023 0.000002
v 0.000000 8.000000 0.000002
v 0.000000 12.552042 0.000003
v -6.928203 4.000001 0.000001
v -10.870388 -6.276020 -0.000002
v -6.928204 -3.999999 -0.000001
v -0.000001 -12.552042 -0.000003
v 0.000000 -8.000000 -0.000002
v 10.870387 -6.276021 -0.000002
v 6.928203 -4.000000 -0.000001
v 10.870388 6.276021 0.000002
v 6.928204 4.000000 0.000001

vt 0.000000 1.000000
vt 0.000000 1.000000
vt 0.000000 1.000000
vt 0.000000 1.000000
vt 0.000000 1.000000
vt 0.000000 1.000000
vt 0.000000 1.000000
vt 0.000000 1.000000
vt 0.000000 1.000000
vt 0.000000 1.000000
vt 0.000000 1.000000
vt 0.000000 1.000000

vn 0.000000 -0.000000 1.000000
vn 0.000000 -0.000000 1.000000
vn 0.000000 -0.000000 1.000000
vn 0.000000 -0.000000 1.000000
vn 0.000000 -0.000000 1.000000
vn 0.000000 -0.000000 1.000000
vn 0.000000 -0.000000 1.000000
vn 0.000000 -0.000000 1.000000
vn 0.000000 -0.000000 1.000000
vn 0.000000 -0.000000 1.000000
vn 0.000000 -0.000000 1.000000
vn 0.000000 -0.000000 1.000000

g polygon0
s 1
usemtl mat2
f 1/1/1 2/2/2 3/3/3
f 1/1/1 4/4/4 2/2/2
f 5/5/5 4/4/4 1/1/1
f 5/5/5 6/6/6 4/4/4
f 7/7/7 6/6/6 5/5/5
f 7/7/7 8/8/8 6/6/6
f 9/9/9 8/8/8 7/7/7
f 9/9/9 10/10/10 8/8/8
f 11/11/11 10/10/10 9/9/9
f 11/11/11 12/12/12 10/10/10
f 3/3/3 12/12/12 11/11/11
f 3/3/3 2/2/2 12/12/12

v -13.856406 8.000002 0.000002
v 0.000000 14.000000 0.000004
v 0.000000 16.000000 0.000004
v -12.124354 7.000002 0.000002
v -13.856408 -8.000000 -0.000002
v -12.124356 -7.000000 -0.000002
v 0.000000 -16.000000 -0.000004
v 0.000000 -14.000000 -0.000004
v 13.856406 -8.000000 -0.000002
v 12.124356 -7.000000 -0.000002
v 13.856408 8.000000 0.000002
v 12.124356 7.000000 0.000002
v 0.000000 10.000000 0.000003
v -8.660254 5.000000 0.000001
v -8.660254 -5.000000 -0.000001
v 0.000000 -10.000000 -0.000003
v 8.660254 -5.000000 -0.000001
v 8.660254 5.000000 0.000001
v 0.000000 8.000000 0.000002
v -6.928202 4.000000 0.000001
v -6.928204 -4.000000 -0.000001
v 0.000000 -8.000000 -0.000002
v 6.928204 -4.000000 -0.000001
v 6.928204 4.000000 0.000001

vt 0.000000 1.000000
vt 0.000000 1.000000
vt 0.000000 1.000000
vt 0.000000 1.000000
vt 0.000000 1.000000
vt 0.000000 1.000000
vt 0.000000 1.000000
vt 0.000000 1.000000
vt 0.000000 1.000000
vt 0.000000 1.000000
vt 0.000000 1.000000
vt 0.000000 1.000000
vt 0.000000 1.000000
vt 0.000000 1.000000
vt 0.000000 1.000000
vt 0.000000 1.000000
vt 0.000000 1.000000
vt 0.000000 1.000000
vt 0.000000 1.000000
vt 0.000000 1.000000
vt 0.000000 1.000000
vt 0.000000 1.000000
vt 0.000000 1.000000
vt 0.000000 1.000000

vn 0.000000 -0.000000 1.000000
vn 0.000000 -0.000000 1.000000
vn 0.000000 -0.000000 1.000000
vn 0.000000 -0.000000 1.000000
vn 0.000000 -0.000000 1.000000
vn 0.000000 -0.000000 1.000000
vn 0.000000 -0.000000 1.000000
vn 0.000000 -0.000000 1.000000
vn 0.000000 -0.000000 1.000000
vn 0.000000 -0.000000 1.000000
vn 0.000000 -0.000000 1.000000
vn 0.000000 -0.000000 1.000000
vn 0.000000 -0.000000 1.000000
vn 0.000000 -0.000000 1.000000
vn 0.000000 -0.000000 1.000000
vn 0.000000 -0.000000 1.000000
vn 0.000000 -0.000000 1.000000
vn 0.000000 -0.000000 1.000000
vn 0.000000 -0.000000 1.000000
vn 0.000000 -0.000000 1.000000
vn 0.000000 -0.000000 1.000000
vn 0.000000 -0.000000 1.000000
vn 0.000000 -0.000000 1.000000
vn 0.000000 -0.000000 1.000000

g polygon1
s 1
usemtl mat1
f 13/13/13 14/14/14 15/15/15
f 13/13/13 16/16/16 14/14/14
f 17/17/17 16/16/16 13/13/13
f 17/17/17 18/18/18 16/16/16
f 19/19/19 18/18/18 17/17/17
f 19/19/19 20/20/20 18/18/18
f 21/21/21 20/20/20 19/19/19
f 21/21/21 22/22/22 20/20/20
f 23/23/23 22/22/22 21/21/21
f 23/23/23 24/24/24 22/22/22
f 15/15/15 24/24/24 23/23/23
f 15/15/15 14/14/14 24/24/24
f 16/16/16 25/25/25 14/14/14
f 16/16/16 26/26/26 25/25/25
f 18/18/18 26/26/26 16/16/16
f 18/18/18 27/27/27 26/26/26
f 20/20/20 27/27/27 18/18/18
f 20/20/20 28/28/28 27/27/27
f 22/22/22 28/28/28 20/20/20
f 22/22/22 29/29/29 28/28/28
f 24/24/24 29/29/29 22/22/22
f 24/24/24 30/30/30 29/29/29
f 14/14/14 30/30/30 24/24/24
f 14/14/14 25/25/25 30/30/30
f 26/26/26 31/31/31 25/25/25
f 26/26/26 32/32/32 31/31/31
f 27/27/27 32/32/32 26/26/26
f 27/27/27 33/33/33 32/32/32
f 28/28/28 33/33/33 27/27/27
f 28/28/28 34/34/34 33/33/33
f 29/29/29 34/34/34 28/28/28
f 29/29/29 35/35/35 34/34/34
f 30/30/30 35/35/35 29/29/29
f 30/30/30 36/36/36 35/35/35
f 25/25/25 36/36/36 30/30/30
f 25/25/25 31/31/31 36/36/36

v -8.000000 0.000001 0.000000
v -3.500000 6.062178 0.000002
v -4.000000 6.928203 0.000002
v -7.000000 0.000001 0.000000
v -4.000000 -6.928204 -0.000002
v -3.500000 -6.062178 -0.000002
v 4.000000 -6.928203 -0.000002
v 3.500000 -6.062178 -0.000002
v 8.000000 0.000000 -0.000000
v 7.000000 0.000000 0.000000
v 4.000000 6.928204 0.000002
v 3.500000 6.062178 0.000002
v -2.500000 4.330127 0.000001
v -5.000000 0.000000 0.000000
v -2.500000 -4.330127 -0.000001
v 2.500000 -4.330127 -0.000001
v 5.000000 -0.000000 -0.000000
v 2.500000 4.330127 0.000001
v -2.000000 3.464102 0.000001
v -4.000000 0.000000 0.000000
v -2.000000 -3.464102 -0.000001
v 2.000000 -3.464102 -0.000001
v 4.000000 0.000000 0.000000
v 2.000000 3.464102 0.000001

vt 0.000000 1.000000
vt 0.000000 1.000000
vt 0.000000 1.000000
vt 0.000000 1.000000
vt 0.000000 1.000000
vt 0.000000 1.000000
vt 0.000000 1.000000
vt 0.000000 1.000000
vt 0.000000 1.000000
vt 0.000000 1.000000
vt 0.000000 1.000000
vt 0.000000 1.000000
vt 0.000000 1.000000
vt 0.000000 1.000000
vt 0.000000 1.000000
vt 0.000000 1.000000
vt 0.000000 1.000000
vt 0.000000 1.000000
vt 0.000000 1.000000
vt 0.000000 1.000000
vt 0.000000 1.000000
vt 0.000000 1.000000
vt 0.000000 1.000000
vt 0.000000 1.000000

vn 0.000000 -0.000000 1.000000
vn 0.000000 -0.000000 1.000000
vn 0.000000 -0.000000 1.000000
vn 0.000000 -0.000000 1.000000
vn 0.000000 -0.000000 1.000000
vn 0.000000 -0.000000 1.000000
vn 0.000000 -0.000000 1.000000
vn 0.000000 -0.000000 1.000000
vn 0.000000 -0.000000 1.000000
vn 0.000000 -0.000000 1.000000
vn 0.000000 -0.000000 1.000000
vn 0.000000 -0.000000 1.000000
vn 0.000000 -0.000000 1.000000
vn 0.000000 -0.000000 1.000000
vn 0.000000 -0.000000 1.000000
vn 0.000000 -0.000000 1.000000
vn 0.000000 -0.000000 1.000000
vn 0.000000 -0.000000 1.000000
vn 0.000000 -0.000000 1.000000
vn 0.000000 -0.000000 1.000000
vn 0.000000 -0.000000 1.000000
vn 0.000000 -0.000000 1.000000
vn 0.000000 -0.000000 1.000000
vn 0.000000 -0.000000 1.000000

g polygon2
s 1
usemtl mat1
f 37/37/37 38/38/38 39/39/39
f 37/37/37 40/40/40 38/38/38
f 41/41/41 40/40/40 37/37/37
f 41/41/41 42/42/42 40/40/40
f 43/43/43 42/42/42 41/41/41
f 43/43/43 44/44/44 42/42/42
f 45/45/45 44/44/44 43/43/43
f 45/45/45 46/46/46 44/44/44
f 47/47/47 46/46/46 45/45/45
f 47/47/47 48/48/48 46/46/46
f 39/39/39 48/48/48 47/47/47
f 39/39/39 38/38/38 48/48/48
f 40/40/40 49/49/49 38/38/38
f 40/40/40 50/50/50 49/49/49
f 42/42/42 50/50/50 40/40/40
f 42/42/42 51/51/51 50/50/50
f 44/44/44 51/51/51 42/42/42
f 44/44/44 52/52/52 51/51/51
f 46/46/46 52/52/52 44/44/44
f 46/46/46 53/53/53 52/52/52
f 48/48/48 53/53/53 46/46/46
f 48/48/48 54/54/54 53/53/53
f 38/38/38 54/54/54 48/48/48
f 38/38/38 49/49/49 54/54/54
f 50/50/50 55/55/55 49/49/49
f 50/50/50 56/56/56 55/55/55
f 51/51/51 56/56/56 50/50/50
f 51/51/51 57/57/57 56/56/56
f 52/52/52 57/57/57 51/51/51
f 52/52/52 58/58/58 57/57/57
f 53/53/53 58/58/58 52/52/52
f 53/53/53 59/59/59 58/58/58
f 54/54/54 59/59/59 53/53/53
f 54/54/54 60/60/60 59/59/59
f 49/49/49 60/60/60 54/54/54
f 49/49/49 55/55/55 60/60/60

